<?xml version="1.0" encoding="UTF-8"?>
<svg width="3450px" height="1823px" viewBox="0 0 3450 1823" version="1.1" xmlns="http://www.w3.org/2000/svg" xmlns:xlink="http://www.w3.org/1999/xlink">
    <!-- Generator: Sketch 51.3 (57544) - http://www.bohemiancoding.com/sketch -->
    <title>Group</title>
    <desc>Created with Sketch.</desc>
    <defs></defs>
    <g id="Page-1" stroke="none" stroke-width="1" fill="none" fill-rule="evenodd">
        <g id="Group" transform="translate(-121.000000, -33.000000)">
            <path d="M1171.01772,1398.31899 C1171.01772,1619.24051 1033.21519,1855.47342 595.746835,1855.47342 C431.696203,1855.47342 313.579747,1840.16203 208.587342,1816.10127 C186.713924,1811.72658 167.027848,1796.41519 167.027848,1772.35443 L167.027848,1614.86582 C167.027848,1590.80506 186.713924,1573.30633 208.587342,1573.30633 L212.962025,1573.30633 C300.455696,1584.24304 519.189873,1595.17975 600.121519,1595.17975 C794.794937,1595.17975 853.853165,1525.18481 853.853165,1398.31899 C853.853165,1313.01266 812.293671,1269.26582 667.929114,1183.95949 L379.2,1011.15949 C175.777215,890.855696 121.093671,763.989873 121.093671,610.875949 C121.093671,370.268354 261.083544,195.281013 667.929114,195.281013 C812.293671,195.281013 1013.52911,217.15443 1087.89873,234.653165 C1109.77215,239.027848 1127.27089,254.339241 1127.27089,276.212658 L1127.27089,438.075949 C1127.27089,459.949367 1111.95949,477.448101 1090.08608,477.448101 L1085.71139,477.448101 C941.346835,464.324051 796.982278,455.574684 654.805063,455.574684 C492.941772,455.574684 425.134177,512.44557 425.134177,610.875949 C425.134177,683.058228 462.318987,726.805063 604.496203,805.549367 L866.977215,952.101266 C1107.58481,1085.52911 1171.01772,1225.51899 1171.01772,1398.31899 Z M2973.63038,648.060759 C2973.63038,650.248101 2973.63038,652.435443 2973.63038,654.622785 L2774.58228,1660.8 C2748.33418,1792.04051 2713.33671,1844.53671 2579.90886,1844.53671 L2520.85063,1844.53671 C2402.73418,1844.53671 2341.48861,1787.66582 2313.05316,1673.92405 L2140.25316,1004.59747 C2138.06582,995.848101 2138.06582,993.660759 2133.69114,993.660759 C2129.31646,993.660759 2129.31646,995.848101 2127.12911,1004.59747 L1954.32911,1673.92405 C1925.89367,1787.66582 1864.6481,1844.53671 1746.53165,1844.53671 L1687.47342,1844.53671 C1554.04557,1844.53671 1519.0481,1792.04051 1492.8,1660.8 L1293.7519,654.622785 C1293.7519,652.435443 1293.7519,650.248101 1293.7519,648.060759 C1293.7519,624 1313.43797,604.313924 1337.49873,604.313924 L1549.67089,604.313924 C1571.5443,604.313924 1586.8557,624 1589.04304,643.686076 L1726.84557,1568.93165 C1729.03291,1588.61772 1733.40759,1599.55443 1737.78228,1599.55443 C1742.15696,1599.55443 1748.71899,1590.80506 1753.09367,1568.93165 L1934.64304,833.98481 C1956.51646,748.678481 1982.76456,739.929114 2057.13418,739.929114 L2210.2481,739.929114 C2284.61772,739.929114 2310.86582,748.678481 2332.73924,833.98481 L2514.28861,1568.93165 C2518.66329,1590.80506 2525.22532,1599.55443 2529.6,1599.55443 C2533.97468,1599.55443 2538.34937,1588.61772 2540.53671,1568.93165 L2678.33924,643.686076 C2680.52658,624 2695.83797,604.313924 2717.71139,604.313924 L2929.88354,604.313924 C2953.9443,604.313924 2973.63038,624 2973.63038,648.060759 Z" id="Sw" fill="#1890FF"></path>
            <g id="moon-o" transform="translate(3053.164557, 600.000000) rotate(-183.000000) translate(-3053.164557, -600.000000) translate(2536.708861, 30.379747)" fill="#D8D8D8" fill-rule="nonzero">
                <path d="M1025.31646,927.371333 C992.796119,932.841177 959.292071,935.576099 925.845888,935.576099 C590.40035,935.576099 318.259524,661.909325 318.259524,324.582876 C318.259524,209.134252 351.705707,96.3623597 412.290747,0 C171.802278,71.8062511 0,293.684076 0,557.342199 C0,878.317305 259.46831,1139.24051 578.65368,1139.24051 C753.17563,1139.24051 916.818891,1059.22949 1025.31646,927.371333 Z" id="Shape"></path>
            </g>
        </g>
    </g>
</svg>